<?xml version="1.0" encoding="UTF-8" standalone="no"?>
<!-- Created with Inkscape (http://www.inkscape.org/) -->

<svg
   xmlns:dc="http://purl.org/dc/elements/1.1/"
   xmlns:cc="http://creativecommons.org/ns#"
   xmlns:rdf="http://www.w3.org/1999/02/22-rdf-syntax-ns#"
   xmlns:svg="http://www.w3.org/2000/svg"
   xmlns="http://www.w3.org/2000/svg"
   xmlns:sodipodi="http://sodipodi.sourceforge.net/DTD/sodipodi-0.dtd"
   xmlns:inkscape="http://www.inkscape.org/namespaces/inkscape"
   width="204mm"
   height="192mm"
   viewBox="0 0 204 192"
   version="1.1"
   id="svg8"
   inkscape:version="0.92.4 (5da689c313, 2019-01-14)"
   sodipodi:docname="deskworker.svg">
  <defs
     id="defs2" />
  <sodipodi:namedview
     id="base"
     pagecolor="#ffffff"
     bordercolor="#666666"
     borderopacity="1.0"
     inkscape:pageopacity="0.0"
     inkscape:pageshadow="2"
     inkscape:zoom="0.53160229"
     inkscape:cx="492.02566"
     inkscape:cy="299.1037"
     inkscape:document-units="mm"
     inkscape:current-layer="layer1"
     showgrid="false"
     inkscape:window-width="1366"
     inkscape:window-height="745"
     inkscape:window-x="-8"
     inkscape:window-y="-8"
     inkscape:window-maximized="1" />
  <metadata
     id="metadata5">
    <rdf:RDF>
      <cc:Work
         rdf:about="">
        <dc:format>image/svg+xml</dc:format>
        <dc:type
           rdf:resource="http://purl.org/dc/dcmitype/StillImage" />
        <dc:title></dc:title>
      </cc:Work>
    </rdf:RDF>
  </metadata>
  <g
     inkscape:label="Layer 1"
     inkscape:groupmode="layer"
     id="layer1"
     transform="translate(0,-105)">
    <g
       id="g872"
       transform="translate(-29.736719,2.9233399)">
      <path
         inkscape:connector-curvature="0"
         id="path988"
         d="m 133.24938,282.54341 c 0.0148,1.84958 -0.44402,4.84645 -2.07774,5.34395 -1.86467,0.56782 -34.609559,2.78005 -25.77163,-5.29383 4.37255,-3.99453 16.57778,-7.35961 19.67818,-8.63151"
         style="fill:#2b1100;stroke:#000000;stroke-width:0.25148287px;stroke-linecap:butt;stroke-linejoin:miter;stroke-opacity:1" />
      <path
         transform="rotate(-179.6927)"
         d="m -113.76425,-199.0062 a 6.9772849,5.5204887 0 0 1 -3.48865,4.78089 6.9772849,5.5204887 0 0 1 -6.97728,0 6.9772849,5.5204887 0 0 1 -3.48864,-4.78089"
         sodipodi:open="true"
         sodipodi:end="3.1415927"
         sodipodi:start="0"
         sodipodi:ry="5.5204887"
         sodipodi:rx="6.9772849"
         sodipodi:cy="-199.0062"
         sodipodi:cx="-120.74154"
         sodipodi:type="arc"
         id="path876"
         style="opacity:1;fill:#1a1a1a;fill-opacity:1;fill-rule:nonzero;stroke:#1a1a1a;stroke-width:1;stroke-linecap:round;stroke-linejoin:miter;stroke-miterlimit:4;stroke-dasharray:none;stroke-dashoffset:0;stroke-opacity:1;paint-order:stroke fill markers" />
      <rect
         transform="matrix(0.79208176,0.61041501,-0.22709096,0.97387355,0,0)"
         rx="2.1382749"
         ry="3.161622"
         y="96.572983"
         x="125.10483"
         height="26.304697"
         width="4.2765498"
         id="rect821"
         style="opacity:1;fill:#241c1c;fill-opacity:1;fill-rule:nonzero;stroke:#241c1c;stroke-width:0.95915031;stroke-linecap:round;stroke-linejoin:miter;stroke-miterlimit:4;stroke-dasharray:none;stroke-dashoffset:0;stroke-opacity:1;paint-order:stroke fill markers" />
      <rect
         transform="rotate(-16.24869)"
         ry="1.6258329"
         y="127.50523"
         x="25.992828"
         height="71.2799"
         width="3.2516658"
         id="rect815"
         style="opacity:1;fill:#2b0000;fill-opacity:1;fill-rule:nonzero;stroke:#2b0000;stroke-width:0.70712489;stroke-linecap:round;stroke-linejoin:miter;stroke-miterlimit:4;stroke-dasharray:none;stroke-dashoffset:0;stroke-opacity:1;paint-order:stroke fill markers" />
      <rect
         ry="2.24647"
         y="194.22459"
         x="62.40004"
         height="4.4929399"
         width="32.739582"
         id="rect819"
         style="opacity:1;fill:#241c1c;fill-opacity:1;fill-rule:nonzero;stroke:#241c1c;stroke-width:1.09511077;stroke-linecap:round;stroke-linejoin:miter;stroke-miterlimit:4;stroke-dasharray:none;stroke-dashoffset:0;stroke-opacity:1;paint-order:stroke fill markers" />
      <rect
         ry="2.7056513"
         rx="3.6981821"
         y="204.56"
         x="52.417427"
         height="87.446686"
         width="69.230003"
         id="rect828"
         style="opacity:1;fill:#916f6f;fill-opacity:1;fill-rule:nonzero;stroke:#916f6f;stroke-width:1.16689074;stroke-linecap:round;stroke-linejoin:miter;stroke-miterlimit:4;stroke-dasharray:none;stroke-dashoffset:0;stroke-opacity:1;paint-order:stroke fill markers" />
      <rect
         ry="0"
         rx="3.4070077"
         y="199.70345"
         x="31.287148"
         height="16.364672"
         width="118.29136"
         id="rect830"
         style="opacity:1;fill:#916f6f;fill-opacity:1;fill-rule:nonzero;stroke:#916f6f;stroke-width:1.1170907;stroke-linecap:round;stroke-linejoin:miter;stroke-miterlimit:4;stroke-dasharray:none;stroke-dashoffset:0;stroke-opacity:1;paint-order:stroke fill markers" />
      <path
         inkscape:connector-curvature="0"
         id="path864"
         d="m 159.59594,142.12075 c -2.48508,-0.68095 -4.50763,-2.77993 -6.02765,-6.25546 -0.58347,-1.33412 -1.39372,-3.79291 -1.66446,-5.05102 -0.11184,-0.51972 -0.32942,-1.48169 -0.48351,-2.13771 -0.15409,-0.65602 -0.2806,-1.30296 -0.28114,-1.43765 -7.9e-4,-0.21436 0.025,-0.22869 0.20708,-0.11496 0.16511,0.10311 0.24559,0.0988 0.38987,-0.0209 0.24282,-0.20153 0.15682,-0.71308 -0.33316,-1.98182 -0.20858,-0.54006 -0.34127,-1.01785 -0.29489,-1.06176 0.0464,-0.0439 2.45088,-0.85875 5.34332,-1.81076 l 5.25898,-1.73093 0.18866,1.74811 c 0.10377,0.96147 0.21051,1.80516 0.23721,1.87489 0.0267,0.0697 0.37556,0.28284 0.77525,0.4736 1.29361,0.61738 2.1242,0.43882 2.4423,-0.52506 0.26595,-0.80583 -0.10941,-2.45903 -0.83005,-3.65576 -0.20456,-0.33972 -0.34918,-0.65449 -0.32136,-0.6995 0.0278,-0.045 0.27266,-0.14401 0.54411,-0.22001 0.56305,-0.15764 0.60837,-0.20181 0.52687,-0.51346 l -0.0591,-0.2258 -0.76587,0.26049 c -0.64318,0.21875 -0.8283,0.24189 -1.15559,0.14441 -0.48295,-0.14383 -0.90093,-0.005 -1.15595,0.38434 -0.15613,0.23829 -0.92951,0.5233 -5.59213,2.06081 -2.97602,0.98136 -5.49267,1.79839 -5.59256,1.81564 -0.26755,0.0462 -0.51206,-0.70321 -0.83848,-2.56994 -0.1538,-0.87951 -0.40097,-2.13661 -0.54926,-2.79356 -0.59149,-2.62024 -0.22399,-4.36737 1.32372,-6.29316 1.80151,-2.24159 5.21962,-3.94605 8.87039,-4.42325 1.22192,-0.15973 4.16115,-0.0641 5.19406,0.169 2.86164,0.64576 5.02665,1.83484 7.00461,3.84714 2.25517,2.29429 3.37647,4.82395 3.69787,8.34235 0.41566,4.55023 -1.19912,10.30802 -4.1901,14.94056 -0.74555,1.15473 -0.72549,1.15829 -0.87054,-0.15475 -0.0514,-0.46533 -0.12144,-0.67771 -0.2235,-0.67771 -0.1834,0 -0.19324,0.48431 -0.0311,1.52953 l 0.11759,0.75783 -0.46445,0.61835 c -0.70257,0.93537 -2.53321,2.73049 -3.53971,3.47102 -0.85134,0.62638 -2.50305,1.53885 -2.78554,1.53885 -0.0725,0 -0.34746,-0.41412 -0.61093,-0.92027 -0.44869,-0.86198 -0.65582,-1.06112 -0.7252,-0.69723 -0.0161,0.0845 0.18423,0.5278 0.4452,0.98508 l 0.47449,0.83142 -0.49941,0.1306 c -0.8041,0.21028 -2.47198,0.23589 -3.15602,0.0485 z"
         style="opacity:1;fill:#ffccaa;fill-opacity:1;fill-rule:nonzero;stroke:#ffccaa;stroke-width:0.40982416;stroke-linecap:round;stroke-linejoin:miter;stroke-miterlimit:4;stroke-dasharray:none;stroke-dashoffset:0;stroke-opacity:1;paint-order:stroke fill markers" />
      <path
         inkscape:connector-curvature="0"
         id="path870"
         d="m 167.75665,146.48961 c -1.54574,-1.88781 -2.31225,-3.05484 -3.07149,-4.67627 l -0.63217,-1.3502 0.5943,-0.14085 c 1.72939,-0.40985 4.63225,-2.52279 6.40434,-4.66158 l 1.2226,-1.4756 0.32615,1.6472 c 0.17939,0.90596 0.66527,2.74802 1.0797,4.09346 l 0.75356,2.44626 -2.49036,2.86017 c -1.3697,1.57311 -2.61132,2.81795 -2.75916,2.76631 -0.14791,-0.0509 -0.79016,-0.73064 -1.42743,-1.50892 z"
         style="opacity:1;fill:#ffccaa;fill-opacity:1;fill-rule:nonzero;stroke:#ffccaa;stroke-width:0.78909278;stroke-linecap:round;stroke-linejoin:miter;stroke-miterlimit:4;stroke-dasharray:none;stroke-dashoffset:0;stroke-opacity:1;paint-order:stroke fill markers" />
      <path
         inkscape:connector-curvature="0"
         id="path872"
         d="m 149.04667,131.82611 c 0,-0.65299 0.41952,-1.87093 1.2339,-3.58224 l 0.6419,-1.34887 0.49447,1.84016 c 0.27196,1.01209 0.53541,2.09757 0.58544,2.41219 l 0.091,0.57201 -1.00278,0.30973 c -0.55152,0.17035 -1.23703,0.30972 -1.52333,0.30972 -0.48806,0 -0.52057,-0.032 -0.52057,-0.5127 z"
         style="opacity:1;fill:#ffccaa;fill-opacity:1;fill-rule:nonzero;stroke:#ffccaa;stroke-width:0.57957894;stroke-linecap:round;stroke-linejoin:miter;stroke-miterlimit:4;stroke-dasharray:none;stroke-dashoffset:0;stroke-opacity:1;paint-order:stroke fill markers" />
      <path
         inkscape:connector-curvature="0"
         id="path898"
         d="m 122.23338,191.02684 c -2.21591,-1.75287 -10.20209,1.56698 -5.67384,0.92008 l 5.69301,-0.86257"
         style="fill:#ffccaa;stroke:#ffccaa;stroke-width:0.07;stroke-linecap:butt;stroke-linejoin:miter;stroke-miterlimit:4;stroke-dasharray:none;stroke-opacity:1" />
      <path
         inkscape:connector-curvature="0"
         id="path910"
         d="m 125.30713,194.89987 -2.99477,-1.57391 -3.29696,0.18661 c -3.46011,0.19584 -4.18106,-0.0743 -2.298,-0.86111 1.44527,-0.60387 4.002,-1.00946 9.73533,-1.54438 2.78324,-0.25967 5.71249,-0.55583 6.50943,-0.65813 1.35792,-0.17431 1.51695,-0.11804 2.53023,0.89524 1.35648,1.35648 1.37911,1.95173 0.0845,2.222 -0.54822,0.11445 -2.1221,0.81548 -3.49752,1.55784 -1.37541,0.74236 -2.78801,1.34975 -3.1391,1.34975 -0.35109,0 -1.98599,-0.70826 -3.63312,-1.57391 z"
         style="opacity:1;fill:#ffccaa;fill-opacity:1;fill-rule:nonzero;stroke:#ffccaa;stroke-width:1.15915787;stroke-linecap:round;stroke-linejoin:miter;stroke-miterlimit:4;stroke-dasharray:none;stroke-dashoffset:0;stroke-opacity:1;paint-order:stroke fill markers" />
      <g
         style="fill:#000080;stroke:#000080"
         transform="matrix(1,0,0,1.0299005,0,-5.7787802)"
         id="g926">
        <path
           style="opacity:1;fill:#000080;fill-opacity:1;fill-rule:nonzero;stroke:#000080;stroke-width:1.20941734;stroke-linecap:round;stroke-linejoin:miter;stroke-miterlimit:4;stroke-dasharray:none;stroke-dashoffset:0;stroke-opacity:1;paint-order:stroke fill markers"
           d="m 166.44461,180.40201 c 0.002,-0.0551 -0.26315,-2.39206 -0.58964,-5.1932 -0.32649,-2.80116 -0.65648,-6.07229 -0.7333,-7.2692 l -0.13967,-2.1762 2.65933,-1.80046 c 3.16505,-2.14284 7.34572,-4.52189 9.75821,-5.553 l 1.74255,-0.7448 1.07935,0.61093 c 3.36972,1.90731 4.74231,3.74437 4.64384,6.21522 -0.11571,2.9033 -2.80516,6.16651 -8.25689,10.01841 -3.96643,2.8025 -10.18431,6.4072 -10.16378,5.8923 z"
           id="path906"
           inkscape:connector-curvature="0" />
        <path
           style="opacity:1;fill:#000080;fill-opacity:1;fill-rule:nonzero;stroke:#000080;stroke-width:1.15915787;stroke-linecap:round;stroke-linejoin:miter;stroke-miterlimit:4;stroke-dasharray:none;stroke-dashoffset:0;stroke-opacity:1;paint-order:stroke fill markers"
           d="m 137.23672,192.88236 c -0.002,-0.83322 -1.11631,-2.4466 -1.85119,-2.67985 -0.56785,-0.18022 -0.33912,-0.3777 1.52705,-1.31838 3.05142,-1.53812 7.57317,-5.01682 13.48352,-10.37321 7.02054,-6.36253 13.90861,-12.38001 14.17111,-12.38001 0.12142,0 0.31007,1.0696 0.41921,2.37688 0.10915,1.30728 0.54463,4.50195 0.96774,7.09925 0.62826,3.85669 0.69506,4.77206 0.36443,4.9934 -0.22267,0.14905 -2.61305,1.35529 -5.31195,2.68052 -6.55573,3.21901 -13.02789,5.98532 -23.07871,9.86421 -0.55174,0.21293 -0.69029,0.16025 -0.69121,-0.26281 z"
           id="path904"
           inkscape:connector-curvature="0" />
      </g>
      <rect
         ry="6.2946658"
         y="222.75847"
         x="166.04521"
         height="12.589332"
         width="66.507988"
         id="rect908"
         style="opacity:1;fill:#0b2228;fill-opacity:1;fill-rule:nonzero;stroke:#0b2228;stroke-width:0.85279077;stroke-linecap:round;stroke-linejoin:miter;stroke-miterlimit:4;stroke-dasharray:none;stroke-dashoffset:0;stroke-opacity:1;paint-order:stroke fill markers" />
      <rect
         transform="rotate(-18.21684)"
         ry="0"
         rx="0"
         y="164.65404"
         x="104.66471"
         height="0.18788776"
         width="14.934728"
         id="rect840"
         style="opacity:1;fill:#000000;fill-opacity:1;fill-rule:nonzero;stroke:#000000;stroke-width:0.26994929;stroke-linecap:round;stroke-linejoin:miter;stroke-miterlimit:4;stroke-dasharray:none;stroke-dashoffset:0;stroke-opacity:1;paint-order:stroke fill markers" />
      <path
         sodipodi:nodetypes="csssssssc"
         inkscape:connector-curvature="0"
         id="path874"
         d="m 149.19145,115.6534 c -5.65458,-13.00314 -1.86322,-8.85092 11.67993,-12.62477 4.58463,-1.27753 5.5874,-1.4509 13.89311,6.22411 2.75976,2.55018 3.72591,7.46268 3.45817,10.98628 -0.30221,3.97727 -0.20563,6.2399 -4.55728,10.93892 -0.0901,0.0973 -10.25012,-1.81254 -8.45938,-6.72474 0.54527,-1.49574 -0.54389,-4.59446 -2.38174,-5.70607 -0.46401,-0.28066 -0.62917,4.65708 -1.11017,4.39087 -3.44175,-1.90482 -7.65892,-8.51877 -12.52264,-7.4846 z"
         style="fill:#4d4d4d;stroke:#4d4d4d;stroke-width:0.26458332px;stroke-linecap:butt;stroke-linejoin:miter;stroke-opacity:1" />
      <rect
         transform="matrix(0.92539226,-0.37901078,0.35724781,0.93400964,0,0)"
         rx="1.1568826"
         y="168.68562"
         x="96.057327"
         height="6.2538199"
         width="0.39265916"
         id="rect834"
         style="opacity:1;fill:#000000;fill-opacity:1;fill-rule:nonzero;stroke:#000000;stroke-width:0.47237033;stroke-linecap:round;stroke-linejoin:miter;stroke-miterlimit:4;stroke-dasharray:none;stroke-dashoffset:0;stroke-opacity:1;paint-order:stroke fill markers" />
      <path
         sodipodi:nodetypes="cccccccc"
         inkscape:connector-curvature="0"
         id="path866"
         d="m 163.66795,126.28585 c -0.45844,-0.24159 -1.32978,-2.07568 -1.33051,-2.22213 -5.3e-4,-0.11908 0.004,-1.3065 -0.0839,-2.17013 -0.0877,-0.86363 -0.16041,-1.66046 -0.16157,-1.77071 -0.002,-0.14247 0.0785,-0.82479 0.6532,-1.04004 0.77516,0.0931 0.96975,0.24682 1.34153,0.87075 0.48051,0.80639 0.78772,1.67248 0.92151,2.59786 -0.16166,2.05077 0.0269,4.40864 -1.34026,3.7344 z"
         style="opacity:1;fill:#ffb380;fill-opacity:1;fill-rule:nonzero;stroke:#ffb380;stroke-width:0.43254358;stroke-linecap:round;stroke-linejoin:miter;stroke-miterlimit:4;stroke-dasharray:none;stroke-dashoffset:0;stroke-opacity:1;paint-order:stroke fill markers" />
      <rect
         transform="matrix(0.99163556,0.12906942,-0.075699,0.99713071,0,0)"
         ry="8.816721"
         y="110.99158"
         x="230.50381"
         height="46.888927"
         width="13.541615"
         id="rect914"
         style="opacity:1;fill:#241c1c;fill-opacity:1;fill-rule:nonzero;stroke:#241c1c;stroke-width:0.08015749;stroke-linecap:round;stroke-linejoin:miter;stroke-miterlimit:4;stroke-dasharray:none;stroke-dashoffset:0;stroke-opacity:1;paint-order:stroke fill markers" />
      <rect
         ry="0"
         y="186.64934"
         x="220.85774"
         height="37.748455"
         width="6.3420348"
         id="rect916"
         style="opacity:1;fill:#241c1c;fill-opacity:1;fill-rule:nonzero;stroke:#241c1c;stroke-width:0.07;stroke-linecap:round;stroke-linejoin:miter;stroke-miterlimit:4;stroke-dasharray:none;stroke-dashoffset:0;stroke-opacity:1;paint-order:stroke fill markers" />
      <path
         inkscape:connector-curvature="0"
         id="path922"
         d="m 175.36576,208.19233 c -0.22791,-0.034 -0.44842,-0.1757 -0.49003,-0.31492 -0.70351,-2.35408 -5.06277,-18.25705 -5.61284,-20.47615 -0.68941,-2.78126 -1.68681,-7.26987 -1.68681,-7.59117 0,-0.075 0.31518,-0.27271 0.70039,-0.43933 1.54092,-0.66649 6.32481,-3.67942 9.03714,-5.69165 2.11548,-1.56942 4.77651,-4.17934 5.73645,-5.62625 1.89459,-2.85569 1.85973,-5.82675 -0.0958,-8.16021 -0.62431,-0.74498 -2.65864,-2.27125 -3.90832,-2.93223 l -0.81229,-0.42964 -1.98823,0.92304 c -2.3548,1.09321 -5.67969,3.01404 -8.17594,4.72336 -0.98829,0.67672 -1.88247,1.28081 -1.98707,1.34238 -0.14655,0.0862 -0.17131,-0.10484 -0.10792,-0.83313 0.35652,-4.09622 0.70003,-5.96657 1.53853,-8.37685 0.54147,-1.55647 0.55858,-1.58284 0.98689,-1.52138 2.31413,0.33211 7.38685,-5.87181 8.26362,-10.10639 l 0.25874,-1.24964 1.83246,1.51483 c 2.45292,2.02774 7.04632,6.55893 8.71615,8.59812 2.14942,2.62486 3.99519,5.45996 5.46671,8.39687 2.96132,5.9103 4.04587,10.3391 5.43178,22.18085 1.21849,10.41127 2.01884,14.62347 3.81132,20.05881 l 0.67507,2.04698 -0.86004,0.37185 c -3.7103,1.60422 -11.05699,3.03182 -18.26491,3.54922 -1.98725,0.14265 -7.60439,0.17093 -8.46509,0.0426 z"
         style="opacity:1;fill:#0066ff;fill-opacity:1;fill-rule:nonzero;stroke:#0066ff;stroke-width:0.04011788;stroke-linecap:round;stroke-linejoin:miter;stroke-miterlimit:4;stroke-dasharray:none;stroke-dashoffset:0;stroke-opacity:1;paint-order:stroke fill markers" />
      <path
         inkscape:connector-curvature="0"
         id="path928"
         d="m 167.63698,153.30349 c -0.60241,-0.52859 -0.88243,-1.93089 -0.72346,-3.62288 l 0.11863,-1.26259 2.67448,-3.01859 c 3.69328,-4.16845 3.84651,-4.32331 4.63041,-4.67941 0.74147,-0.33683 2.08251,-0.42114 2.49989,-0.15718 0.39881,0.25221 0.24844,1.6907 -0.34945,3.34305 -1.22239,3.37825 -4.51716,7.84422 -6.74302,9.14001 -1.15711,0.67361 -1.57512,0.7247 -2.10748,0.25759 z"
         style="opacity:1;fill:#0044aa;fill-opacity:1;fill-rule:nonzero;stroke:#0044aa;stroke-width:0.0456353;stroke-linecap:round;stroke-linejoin:miter;stroke-miterlimit:4;stroke-dasharray:none;stroke-dashoffset:0;stroke-opacity:1;paint-order:stroke fill markers" />
      <rect
         ry="0"
         y="234.371"
         x="197.64624"
         height="37.748455"
         width="6.3420353"
         id="rect916-7"
         style="opacity:1;fill:#241c1c;fill-opacity:1;fill-rule:nonzero;stroke:#241c1c;stroke-width:0.07;stroke-linecap:round;stroke-linejoin:miter;stroke-miterlimit:4;stroke-dasharray:none;stroke-dashoffset:0;stroke-opacity:1;paint-order:stroke fill markers" />
      <rect
         transform="rotate(-12.743268)"
         ry="2.24647"
         y="308.00497"
         x="103.63937"
         height="4.4929399"
         width="32.739582"
         id="rect819-6"
         style="opacity:1;fill:#241c1c;fill-opacity:1;fill-rule:nonzero;stroke:#241c1c;stroke-width:1.09511077;stroke-linecap:round;stroke-linejoin:miter;stroke-miterlimit:4;stroke-dasharray:none;stroke-dashoffset:0;stroke-opacity:1;paint-order:stroke fill markers" />
      <rect
         transform="rotate(11.428917)"
         ry="2.24647"
         y="225.01036"
         x="249.63922"
         height="4.4929399"
         width="32.739582"
         id="rect819-8"
         style="opacity:1;fill:#241c1c;fill-opacity:1;fill-rule:nonzero;stroke:#241c1c;stroke-width:1.09511077;stroke-linecap:round;stroke-linejoin:miter;stroke-miterlimit:4;stroke-dasharray:none;stroke-dashoffset:0;stroke-opacity:1;paint-order:stroke fill markers" />
      <ellipse
         ry="5.456656"
         rx="5.4564805"
         cy="286.69275"
         cx="174.16737"
         id="path969"
         style="opacity:1;fill:#000000;fill-opacity:1;fill-rule:nonzero;stroke:#000000;stroke-width:0.05805865;stroke-linecap:round;stroke-linejoin:miter;stroke-miterlimit:4;stroke-dasharray:none;stroke-dashoffset:0;stroke-opacity:1;paint-order:stroke fill markers" />
      <ellipse
         ry="5.456656"
         rx="5.4564805"
         cy="286.04324"
         cx="227.56682"
         id="path969-4"
         style="opacity:1;fill:#000000;fill-opacity:1;fill-rule:nonzero;stroke:#000000;stroke-width:0.05805865;stroke-linecap:round;stroke-linejoin:miter;stroke-miterlimit:4;stroke-dasharray:none;stroke-dashoffset:0;stroke-opacity:1;paint-order:stroke fill markers" />
      <path
         inkscape:connector-curvature="0"
         id="path990"
         d="m 128.63724,280.05783 c -1.96805,-2.6176 -3.57828,-5.14662 -3.57828,-5.62006 0,-3.00535 6.15309,-25.35166 9.77645,-35.50533 3.05406,-8.55833 5.26075,-13.10184 7.42475,-15.28725 3.32504,-3.35797 9.85654,-6.83841 25.08753,-13.36834 l 6.93969,-2.97524 6.50596,-0.28932 c 7.07482,-0.31462 12.8024,-1.28133 18.21477,-3.07434 1.90736,-0.63188 3.54238,-1.06344 3.63337,-0.95904 0.43185,0.49545 0.8868,4.87861 0.90382,8.70783 0.0236,5.30869 -1.02132,8.10028 -3.66782,9.79886 -1.69374,1.08709 -2.06109,1.11372 -15.47763,1.12172 -7.55849,0.004 -14.21045,0.2122 -14.78212,0.46158 -0.57168,0.24937 -1.60908,1.16044 -2.30532,2.02461 -0.69625,0.86416 -2.04662,2.03108 -3.00083,2.59316 -2.94086,1.7323 -7.47711,5.8256 -10.01356,9.03577 -4.63511,5.86626 -8.38589,13.27881 -12.75695,25.21112 -3.83177,10.4601 -8.75045,22.88503 -9.05923,22.8842 -0.14648,-3e-4 -1.87655,-2.14236 -3.8446,-4.75993 z"
         style="opacity:1;fill:#c8b7b7;fill-opacity:1;fill-rule:nonzero;stroke:#c8b7b7;stroke-width:0.12291253;stroke-linecap:round;stroke-linejoin:miter;stroke-miterlimit:4;stroke-dasharray:none;stroke-dashoffset:0;stroke-opacity:1;paint-order:stroke fill markers" />
    </g>
  </g>
</svg>
