<?xml version="1.0" encoding="UTF-8" standalone="no"?>
<!-- Created with Inkscape (http://www.inkscape.org/) -->

<svg
   xmlns:dc="http://purl.org/dc/elements/1.1/"
   xmlns:cc="http://creativecommons.org/ns#"
   xmlns:rdf="http://www.w3.org/1999/02/22-rdf-syntax-ns#"
   xmlns:svg="http://www.w3.org/2000/svg"
   xmlns="http://www.w3.org/2000/svg"
   xmlns:sodipodi="http://sodipodi.sourceforge.net/DTD/sodipodi-0.dtd"
   xmlns:inkscape="http://www.inkscape.org/namespaces/inkscape"
   width="210mm"
   height="210mm"
   viewBox="0 0 210 210"
   version="1.1"
   id="svg8"
   inkscape:version="0.92.4 (5da689c313, 2019-01-14)"
   sodipodi:docname="face.svg">
  <defs
     id="defs2" />
  <sodipodi:namedview
     id="base"
     pagecolor="#ffffff"
     bordercolor="#666666"
     borderopacity="1.0"
     inkscape:pageopacity="0.0"
     inkscape:pageshadow="2"
     inkscape:zoom="0.30500885"
     inkscape:cx="337.90436"
     inkscape:cy="722.63107"
     inkscape:document-units="mm"
     inkscape:current-layer="layer1"
     showgrid="false"
     inkscape:window-width="1366"
     inkscape:window-height="745"
     inkscape:window-x="-8"
     inkscape:window-y="-8"
     inkscape:window-maximized="1" />
  <metadata
     id="metadata5">
    <rdf:RDF>
      <cc:Work
         rdf:about="">
        <dc:format>image/svg+xml</dc:format>
        <dc:type
           rdf:resource="http://purl.org/dc/dcmitype/StillImage" />
        <dc:title></dc:title>
      </cc:Work>
    </rdf:RDF>
  </metadata>
  <g
     inkscape:label="Layer 1"
     inkscape:groupmode="layer"
     id="layer1"
     transform="translate(0,-87)">
    <g
       id="g935"
       transform="matrix(1.7793995,0,0,1.8128595,-134.42052,-14.567066)">
      <path
         inkscape:connector-curvature="0"
         id="path846"
         d="m 105.59147,106.73248 c -9.797297,-7.615766 2.37151,24.86701 0,0 z"
         style="fill:#ffccaa;stroke:#ffccaa;stroke-width:0.29152974px;stroke-linecap:butt;stroke-linejoin:miter;stroke-opacity:1" />
      <path
         inkscape:connector-curvature="0"
         id="path846-1"
         d="m 162.74898,107.27911 c 9.66288,-7.786767 -1.93429,24.90521 0,0 z"
         style="fill:#ffccaa;stroke:#ffccaa;stroke-width:0.29154655px;stroke-linecap:butt;stroke-linejoin:miter;stroke-opacity:1" />
      <path
         inkscape:connector-curvature="0"
         id="path901"
         d="m 99.967971,170.58592 c 3.109879,-1.68442 4.977569,-3.03882 7.201349,-5.22224 2.61653,-2.56903 4.42686,-5.08524 5.938,-8.2533 1.81883,-3.81314 2.88562,-7.38558 4.42674,-14.82421 0.90538,-4.37001 1.50608,-6.75388 1.70189,-6.75388 0.0928,0 0.86518,0.38665 1.7165,0.85923 3.75263,2.08318 8.23648,3.79932 11.66216,4.46356 2.68392,0.52041 6.28576,0.34447 8.84258,-0.43194 2.20277,-0.6689 5.32856,-2.23191 7.58932,-3.79494 0.87181,-0.60275 1.6182,-1.09591 1.65864,-1.09591 0.13934,0 0.74799,2.50728 1.7991,7.41128 1.64877,7.69242 2.5284,10.58918 4.35233,14.33304 1.44664,2.96941 2.89208,5.00477 5.35234,7.53678 2.44597,2.51731 4.45926,4.03192 7.67369,5.77298 l 2.12893,1.15311 H 134.92488 97.838193 Z"
         style="opacity:1;fill:#ffccaa;fill-opacity:1;fill-rule:nonzero;stroke:#ffccaa;stroke-width:0.80795109;stroke-linecap:round;stroke-linejoin:miter;stroke-miterlimit:4;stroke-dasharray:none;stroke-dashoffset:0;stroke-opacity:1;paint-order:stroke fill markers" />
      <path
         inkscape:connector-curvature="0"
         id="path884"
         d="m 131.26931,146.78475 c -9.27571,-1.76069 -17.21107,-8.951 -21.76882,-19.72497 -2.9146,-6.88975 -4.10414,-14.06037 -3.36825,-20.30387 1.11845,-9.489231 2.73086,-13.545092 5.93239,-14.922349 1.10378,-0.474834 3.5614,-0.646771 16.0961,-1.126088 7.3876,-0.282495 18.11419,-0.828899 23.09615,-1.176504 4.55171,-0.317582 4.06517,-0.50061 6.20697,2.335009 3.73799,4.94888 5.54863,12.341072 4.95855,20.243952 -0.5076,6.79817 -2.08322,12.68469 -4.92202,18.38867 -4.21107,8.46129 -10.04142,13.9354 -16.99292,15.95467 -2.06309,0.59928 -6.91089,0.77323 -9.23815,0.33148 z"
         style="opacity:1;fill:#ffe6d5;fill-opacity:1;fill-rule:nonzero;stroke:#ffe6d5;stroke-width:0.81964833;stroke-linecap:round;stroke-linejoin:miter;stroke-miterlimit:4;stroke-dasharray:none;stroke-dashoffset:0;stroke-opacity:1;paint-order:stroke fill markers" />
      <path
         inkscape:connector-curvature="0"
         id="path882"
         d="m 166.83153,106.98955 c -0.67776,-1.60423 -1.60056,-1.68863 -3.48441,-0.3187 -0.4841,0.35204 -0.48794,0.34792 -0.48794,-0.52339 0,-2.53949 -1.01801,-7.063022 -2.24339,-9.968496 -0.91489,-2.169295 -2.77494,-5.000704 -4.20015,-6.393574 l -1.05487,-1.030925 -4.65433,0.319619 c -6.72736,0.461973 -16.51758,0.932061 -27.31675,1.311643 -5.1885,0.182372 -9.894,0.43602 -10.45666,0.563663 -1.3833,0.313809 -2.81103,1.301305 -3.76978,2.607379 -1.42344,1.93911 -2.62828,5.738524 -3.11966,9.837731 -0.12868,1.07348 -0.28305,2.26368 -0.34304,2.64489 l -0.10908,0.69309 -0.78166,-0.53045 c -1.06317,-0.72148 -1.89936,-0.68678 -2.6981,0.11195 l -0.64239,0.6424 -0.22219,-0.5844 c -0.44514,-1.17081 -1.310031,-4.77154 -1.723111,-7.173689 -0.584692,-3.40011 -0.565936,-5.890069 0.05402,-7.170724 0.579251,-1.196578 3.395731,-4.047006 8.143871,-8.242009 2.25683,-1.993932 4.12308,-3.863888 5.18795,-5.198271 6.57828,-8.243223 15.69853,-14.276255 24.90137,-16.472215 2.17418,-0.518797 2.76978,-0.568259 6.72283,-0.558313 4.00378,0.01008 4.50407,0.05569 6.50596,0.593217 2.62644,0.705223 6.7838,2.718509 8.89147,4.305877 3.11201,2.343771 6.47385,6.155989 7.99975,9.071456 0.79113,1.511583 1.67209,4.073967 2.12493,6.180661 0.97978,4.558176 -0.66656,22.26728 -2.38073,25.60853 l -0.38704,0.75443 z"
         style="opacity:1;fill:#666666;fill-opacity:1;fill-rule:nonzero;stroke:#666666;stroke-width:0.81964833;stroke-linecap:round;stroke-linejoin:miter;stroke-miterlimit:4;stroke-dasharray:none;stroke-dashoffset:0;stroke-opacity:1;paint-order:stroke fill markers" />
    </g>
    <path
       style="opacity:1;fill:#f9f9f9;fill-opacity:1;fill-rule:nonzero;stroke:#f9f9f9;stroke-width:1.08275926;stroke-linecap:round;stroke-linejoin:miter;stroke-miterlimit:4;stroke-dasharray:none;stroke-dashoffset:0;stroke-opacity:1;paint-order:stroke fill markers"
       id="path937-4"
       ry="4.4586201"
       rx="8.4586201"
       cy="139.29132"
       cx="130.37573"
       d=""
       inkscape:connector-curvature="0" />
  </g>
</svg>
